<svg width="31" height="31" viewBox="0 0 31 31" fill="none" xmlns="http://www.w3.org/2000/svg">
<path d="M31 15.5C31 24.0604 24.0604 31 15.5 31C6.93959 31 0 24.0604 0 15.5C0 6.93959 6.93959 0 15.5 0C24.0604 0 31 6.93959 31 15.5Z" fill="#707070"/>
<path d="M20.2792 21.2816L20.8493 17.3301H17.2831V14.767C17.2831 13.6857 17.7804 12.6311 19.3776 12.6311H21V9.26699C21 9.26699 19.5283 9 18.1219 9C15.1836 9 13.2649 10.8929 13.2649 14.3184V17.3301H10V21.2816H13.2649V30.8345C13.9203 30.944 14.5909 31 15.274 31C15.9571 31 16.6277 30.944 17.2831 30.8345V21.2816H20.2792Z" fill="white"/>
</svg>
