<svg width="137" height="36" viewBox="0 0 137 36" fill="none" xmlns="http://www.w3.org/2000/svg">
<path d="M27.883 10.1519L26.2511 10.6539C24.8667 5.72969 22.4443 2.91474 18.2424 2.91474H12.7544C12.4582 6.18159 12.3099 11.2579 12.4582 16.736L16.117 16.5353C18.5891 16.5353 19.6271 14.6758 20.2199 11.9614H21.6043V23.3707H20.2196C19.6268 20.6069 18.5887 18.7466 16.1166 18.596L12.4582 18.5459C12.4582 22.6171 12.5079 26.0847 12.7544 28.1958C13.0021 31.2122 13.7932 32.5687 15.919 32.8703L17.8965 33.0714V34.3785H0V33.0714L1.48332 32.8703C3.56056 32.5687 4.40027 31.2122 4.64717 28.1958C5.0435 23.2705 5.14136 12.7665 4.64717 6.93588C4.40027 3.81929 3.56019 2.56302 1.48332 2.31221L0 2.06028V0.703078H27.833L27.883 10.1519ZM48.3491 22.265C48.3491 29.3022 43.9003 35.0315 35.941 35.0315C28.1296 35.0315 24.1742 29.6031 24.1742 22.4661C24.1742 15.4801 28.623 9.64991 36.5835 9.64991C44.3945 9.64991 48.3491 15.1284 48.3491 22.265ZM31.6397 22.3659C31.6397 28.4974 33.2213 33.5233 36.4352 33.5233C39.8952 33.5233 40.8836 28.5976 40.8836 22.3659C40.8836 16.1339 39.3521 11.2579 36.0889 11.2579C32.6277 11.2579 31.6397 16.0322 31.6397 22.3659ZM66.1956 16.9876C62.9824 14.7767 59.522 15.7309 58.8298 16.9876C58.5329 20.8577 58.5825 26.7878 58.8791 29.855C59.0278 31.8652 59.5713 32.7189 61.0546 32.8703L63.0321 33.0714V34.3785H48.2998V33.0714L49.4369 32.8703C50.8705 32.7193 51.3647 31.8652 51.4644 29.855C51.8096 26.5878 51.9086 19.7525 51.4644 15.9836C51.3647 13.8217 50.8705 13.0177 49.4369 12.8162L48.2998 12.6656V11.7599L58.8298 9.64991L58.6812 15.2787C61.1525 9.44881 66.0477 8.74536 68.7166 10.3025L66.1956 16.9876ZM92.7436 21.4614C92.7436 29.7036 87.7494 35.0315 79.2967 35.0315C76.2803 35.0315 73.1669 34.528 70.4472 33.8758C70.6937 30.5585 70.6937 10.0525 70.4472 6.18159C70.2003 4.17102 69.656 3.21601 68.1727 3.01567L67.1844 2.91474V2.01019L77.6158 0C77.5661 1.7093 77.4671 6.18159 77.4671 11.459C79.2967 10.5036 80.9772 9.9508 83.2517 9.9508C88.69 9.9508 92.7436 14.7767 92.7436 21.4614ZM85.4272 21.8625C85.2785 16.6363 83.4489 12.5153 79.9388 12.5153C79.0991 12.5153 78.4558 12.6656 77.4675 13.0173C77.4675 21.3608 77.5664 30.8089 77.7644 33.0714C78.1099 33.222 78.9504 33.323 79.544 33.323C82.9547 33.323 85.4272 28.2964 85.4272 21.8625ZM106.733 9.64991C113.309 9.64991 116.473 14.6758 116.522 21.2595H101.741C101.691 27.0894 104.658 31.5135 110.195 31.5135C112.617 31.5135 114.001 30.8089 115.485 29.7033L116.176 30.5073C114.545 32.8199 111.184 35.0315 106.685 35.0315C99.4673 35.0315 94.4735 29.855 94.4735 22.5663C94.4731 15.9833 98.5764 9.64991 106.733 9.64991ZM109.206 19.3499C109.354 16.0322 108.711 11.2575 106.092 11.2575C103.421 11.2575 101.938 15.7306 101.889 19.5502L109.206 19.3499ZM135.011 17.1386L133.775 17.4903C132.589 13.2689 130.611 11.459 127.793 11.459C125.816 11.459 124.432 12.8162 124.432 14.9774C124.432 17.0384 126.062 18.1433 130.463 20.0033C134.517 21.5616 136.198 23.4708 136.198 26.7881C136.198 31.8652 132.39 35.0319 126.112 35.0319C123.096 35.0319 119.685 34.3288 117.758 33.5237L117.51 26.4869L118.696 26.2361C120.476 31.0608 122.75 32.8707 125.717 32.8707C128.288 32.8707 129.622 31.0111 129.622 29.1015C129.622 27.1907 128.584 26.0851 124.58 24.5776C120.772 23.2709 118.153 21.5619 118.153 17.3397C118.153 13.1683 121.662 9.65066 127.644 9.65066C130.462 9.65066 133.033 10.1526 134.714 10.957L135.011 17.1386Z" fill="white"/>
</svg>
